<mxfile host="app.diagrams.net" agent="Mozilla/5.0 (Windows NT 10.0; Win64; x64) AppleWebKit/537.36 (KHTML, like Gecko) Chrome/132.0.0.0 Safari/537.36" version="26.0.8">
  <diagram name="Seite-1" id="N4Hk6L6VlHu097rjAEjt">
    <mxGraphModel dx="1430" dy="1932" grid="1" gridSize="10" guides="1" tooltips="1" connect="1" arrows="1" fold="1" page="1" pageScale="1" pageWidth="827" pageHeight="1169" math="0" shadow="0">
      <root>
        <mxCell id="0" />
        <mxCell id="1" parent="0" />
        <mxCell id="GoeE4i76lrTlupw1m3yI-13" value="superset of" style="edgeStyle=orthogonalEdgeStyle;rounded=0;orthogonalLoop=1;jettySize=auto;html=1;entryX=0.5;entryY=0;entryDx=0;entryDy=0;" parent="1" source="GoeE4i76lrTlupw1m3yI-2" target="GoeE4i76lrTlupw1m3yI-7" edge="1">
          <mxGeometry relative="1" as="geometry" />
        </mxCell>
        <mxCell id="GoeE4i76lrTlupw1m3yI-2" value="&lt;b&gt;&lt;i&gt;Classic Class C WEID&lt;br&gt;&lt;/i&gt;&lt;/b&gt;&lt;div&gt;&lt;span style=&quot;color: rgb(192, 192, 192); background-color: transparent;&quot;&gt;urn:x-&lt;/span&gt;weid:&lt;font style=&quot;color: rgb(0, 204, 0);&quot;&gt;(B36)&lt;/font&gt;-...-?&lt;br&gt;&lt;div&gt;&lt;span style=&quot;color: rgb(192, 192, 192); background-color: transparent;&quot;&gt;urn:x-&lt;/span&gt;weid:pen:37553:8-&lt;font style=&quot;color: rgb(0, 204, 0);&quot;&gt;(B36)&lt;/font&gt;-...-?&lt;/div&gt;&lt;div&gt;&lt;span style=&quot;color: rgb(192, 192, 192); background-color: transparent;&quot;&gt;urn:x-&lt;/span&gt;weid:pen:SZ5-8-&lt;font style=&quot;color: rgb(0, 204, 0);&quot;&gt;(B36)&lt;/font&gt;-...-?&lt;/div&gt;&lt;div&gt;&lt;span style=&quot;color: rgb(192, 192, 192); background-color: transparent;&quot;&gt;urn:x-&lt;/span&gt;&lt;span style=&quot;background-color: transparent; color: light-dark(rgb(0, 0, 0), rgb(255, 255, 255));&quot;&gt;weid:root:1-3-6-1-4-1-SZ5-8-&lt;/span&gt;&lt;span style=&quot;background-color: transparent;&quot;&gt;&lt;font style=&quot;color: light-dark(rgb(0, 204, 0), rgb(255, 255, 255));&quot;&gt;(B36)&lt;/font&gt;&lt;/span&gt;&lt;span style=&quot;background-color: transparent; color: light-dark(rgb(0, 0, 0), rgb(255, 255, 255));&quot;&gt;-...-?&lt;/span&gt;&lt;/div&gt;&lt;div&gt;&lt;span style=&quot;color: rgb(192, 192, 192); background-color: transparent;&quot;&gt;urn:&lt;/span&gt;oid:&lt;span style=&quot;background-color: transparent; color: light-dark(rgb(0, 0, 0), rgb(255, 255, 255));&quot;&gt;1.3.6.1.4.1.37553.8.&lt;/span&gt;&lt;span style=&quot;background-color: transparent;&quot;&gt;&lt;font style=&quot;color: light-dark(rgb(0, 204, 0), rgb(255, 255, 255));&quot;&gt;(B10)&lt;/font&gt;&lt;/span&gt;&lt;span style=&quot;background-color: transparent; color: light-dark(rgb(0, 0, 0), rgb(255, 255, 255));&quot;&gt;...&lt;/span&gt;&lt;/div&gt;&lt;/div&gt;" style="rounded=0;whiteSpace=wrap;html=1;align=left;verticalAlign=top;" parent="1" vertex="1">
          <mxGeometry x="60" y="100" width="378" height="100" as="geometry" />
        </mxCell>
        <mxCell id="GoeE4i76lrTlupw1m3yI-12" value="superset of" style="edgeStyle=orthogonalEdgeStyle;rounded=0;orthogonalLoop=1;jettySize=auto;html=1;entryX=0.5;entryY=0;entryDx=0;entryDy=0;" parent="1" source="GoeE4i76lrTlupw1m3yI-4" target="GoeE4i76lrTlupw1m3yI-2" edge="1">
          <mxGeometry relative="1" as="geometry" />
        </mxCell>
        <mxCell id="GoeE4i76lrTlupw1m3yI-4" value="&lt;div&gt;&lt;b&gt;&lt;i&gt;PEN-Based Class B WEID&lt;/i&gt;&lt;/b&gt;&lt;/div&gt;&lt;div&gt;&lt;span style=&quot;color: rgb(192, 192, 192); background-color: transparent;&quot;&gt;urn:x-&lt;/span&gt;weid:pen:&lt;font style=&quot;color: rgb(255, 51, 51);&quot;&gt;(B10)&lt;/font&gt;:&lt;font style=&quot;color: rgb(0, 204, 0);&quot;&gt;(B36)&lt;/font&gt;-...-?&lt;/div&gt;&lt;div&gt;&lt;span style=&quot;color: rgb(192, 192, 192); background-color: transparent;&quot;&gt;urn:x-&lt;/span&gt;weid:pen:&lt;font style=&quot;color: rgb(255, 51, 51);&quot;&gt;(B36)&lt;/font&gt;-&lt;font style=&quot;color: rgb(0, 204, 0);&quot;&gt;(B36)&lt;/font&gt;-...-?&lt;/div&gt;&lt;div&gt;&lt;span style=&quot;color: rgb(192, 192, 192); background-color: transparent;&quot;&gt;urn:x-&lt;/span&gt;weid:root:1-3-6-1-4-1-&lt;font style=&quot;color: rgb(255, 51, 51);&quot;&gt;(B36)&lt;/font&gt;-&lt;font style=&quot;color: rgb(0, 204, 0);&quot;&gt;(B36)&lt;/font&gt;-...-?&lt;/div&gt;&lt;div&gt;&lt;span style=&quot;color: rgb(192, 192, 192); background-color: transparent;&quot;&gt;urn:&lt;/span&gt;oid:&lt;span style=&quot;background-color: transparent; color: light-dark(rgb(0, 0, 0), rgb(255, 255, 255));&quot;&gt;1.3.6.1.4.1.&lt;/span&gt;&lt;span style=&quot;background-color: transparent;&quot;&gt;&lt;font style=&quot;color: light-dark(rgb(255, 51, 51), rgb(255, 255, 255));&quot;&gt;(B10)&lt;/font&gt;&lt;/span&gt;&lt;span style=&quot;background-color: transparent; color: light-dark(rgb(0, 0, 0), rgb(255, 255, 255));&quot;&gt;.&lt;/span&gt;&lt;span style=&quot;background-color: transparent;&quot;&gt;&lt;font style=&quot;color: light-dark(rgb(0, 204, 0), rgb(255, 255, 255));&quot;&gt;(B10)&lt;/font&gt;&lt;/span&gt;&lt;span style=&quot;background-color: transparent; color: light-dark(rgb(0, 0, 0), rgb(255, 255, 255));&quot;&gt;...&lt;/span&gt;&lt;/div&gt;" style="rounded=0;whiteSpace=wrap;html=1;align=left;verticalAlign=top;" parent="1" vertex="1">
          <mxGeometry x="60" y="-70" width="378" height="100" as="geometry" />
        </mxCell>
        <mxCell id="GoeE4i76lrTlupw1m3yI-10" value="superset of" style="rounded=0;orthogonalLoop=1;jettySize=auto;html=1;entryX=0.5;entryY=0;entryDx=0;entryDy=0;exitX=0.25;exitY=1;exitDx=0;exitDy=0;" parent="1" source="GoeE4i76lrTlupw1m3yI-5" target="GoeE4i76lrTlupw1m3yI-4" edge="1">
          <mxGeometry relative="1" as="geometry" />
        </mxCell>
        <mxCell id="GoeE4i76lrTlupw1m3yI-11" value="superset of" style="rounded=0;orthogonalLoop=1;jettySize=auto;html=1;exitX=0.75;exitY=1;exitDx=0;exitDy=0;entryX=0.5;entryY=0;entryDx=0;entryDy=0;" parent="1" source="GoeE4i76lrTlupw1m3yI-5" target="GoeE4i76lrTlupw1m3yI-6" edge="1">
          <mxGeometry relative="1" as="geometry" />
        </mxCell>
        <mxCell id="GoeE4i76lrTlupw1m3yI-5" value="&lt;div&gt;&lt;span style=&quot;background-color: transparent; color: light-dark(rgb(0, 0, 0), rgb(255, 255, 255));&quot;&gt;&lt;b&gt;&lt;i&gt;OID-Based Class A WEID&lt;/i&gt;&lt;/b&gt;&lt;/span&gt;&lt;/div&gt;&lt;div&gt;&lt;span style=&quot;background-color: transparent;&quot;&gt;&lt;font style=&quot;color: light-dark(rgb(192, 192, 192), rgb(255, 255, 255));&quot;&gt;urn:x-&lt;/font&gt;&lt;/span&gt;&lt;span style=&quot;background-color: transparent; color: light-dark(rgb(0, 0, 0), rgb(255, 255, 255));&quot;&gt;weid:root:&lt;/span&gt;&lt;span style=&quot;background-color: transparent;&quot;&gt;&lt;font style=&quot;color: light-dark(rgb(0, 204, 0), rgb(255, 255, 255));&quot;&gt;(B36)&lt;/font&gt;&lt;/span&gt;&lt;span style=&quot;background-color: transparent; color: light-dark(rgb(0, 0, 0), rgb(255, 255, 255));&quot;&gt;-...-?&lt;/span&gt;&lt;/div&gt;&lt;div&gt;&lt;span style=&quot;color: rgb(192, 192, 192); background-color: transparent;&quot;&gt;urn:&lt;/span&gt;oid:&lt;span style=&quot;background-color: transparent;&quot;&gt;&lt;font style=&quot;color: light-dark(rgb(0, 204, 0), rgb(255, 255, 255));&quot;&gt;(B10)&lt;/font&gt;&lt;/span&gt;&lt;span style=&quot;background-color: transparent; color: light-dark(rgb(0, 0, 0), rgb(255, 255, 255));&quot;&gt;...&lt;/span&gt;&lt;/div&gt;" style="rounded=0;whiteSpace=wrap;html=1;align=left;verticalAlign=top;" parent="1" vertex="1">
          <mxGeometry x="250" y="-240" width="380" height="100" as="geometry" />
        </mxCell>
        <mxCell id="GoeE4i76lrTlupw1m3yI-6" value="&lt;div&gt;&lt;span style=&quot;background-color: transparent; color: light-dark(rgb(0, 0, 0), rgb(255, 255, 255));&quot;&gt;&lt;b&gt;&lt;i&gt;UUID-Based Class B WEID&lt;/i&gt;&lt;/b&gt;&lt;/span&gt;&lt;/div&gt;&lt;div&gt;&lt;span style=&quot;color: rgb(192, 192, 192); background-color: transparent;&quot;&gt;urn:x-&lt;/span&gt;&lt;span style=&quot;background-color: transparent; color: light-dark(rgb(0, 0, 0), rgb(255, 255, 255));&quot;&gt;weid:uuid:&lt;/span&gt;&lt;span style=&quot;background-color: transparent;&quot;&gt;&lt;font style=&quot;color: light-dark(rgb(255, 51, 51), rgb(255, 255, 255));&quot;&gt;(B16 UUID)&lt;/font&gt;&lt;/span&gt;&lt;span style=&quot;background-color: transparent; color: light-dark(rgb(0, 0, 0), rgb(255, 255, 255));&quot;&gt;:&lt;/span&gt;&lt;span style=&quot;background-color: transparent;&quot;&gt;&lt;font style=&quot;color: light-dark(rgb(0, 204, 0), rgb(255, 255, 255));&quot;&gt;(B36)&lt;/font&gt;&lt;/span&gt;&lt;span style=&quot;background-color: transparent; color: light-dark(rgb(0, 0, 0), rgb(255, 255, 255));&quot;&gt;-...-?&lt;/span&gt;&lt;/div&gt;&lt;div&gt;&lt;span style=&quot;color: rgb(192, 192, 192); background-color: transparent;&quot;&gt;urn:x-&lt;/span&gt;&lt;span style=&quot;background-color: transparent; color: light-dark(rgb(0, 0, 0), rgb(255, 255, 255));&quot;&gt;weid:uuid:&lt;/span&gt;&lt;span style=&quot;background-color: transparent;&quot;&gt;&lt;font style=&quot;color: light-dark(rgb(255, 51, 51), rgb(255, 255, 255));&quot;&gt;(B36)&lt;/font&gt;&lt;/span&gt;&lt;span style=&quot;background-color: transparent; color: light-dark(rgb(0, 0, 0), rgb(255, 255, 255));&quot;&gt;-&lt;/span&gt;&lt;span style=&quot;background-color: transparent;&quot;&gt;&lt;font style=&quot;color: light-dark(rgb(0, 204, 0), rgb(255, 255, 255));&quot;&gt;(B36)&lt;/font&gt;&lt;/span&gt;&lt;span style=&quot;background-color: transparent; color: light-dark(rgb(0, 0, 0), rgb(255, 255, 255));&quot;&gt;-...-?&lt;/span&gt;&lt;/div&gt;&lt;div&gt;&lt;span style=&quot;color: rgb(192, 192, 192); background-color: transparent;&quot;&gt;urn:x-&lt;/span&gt;&lt;span style=&quot;background-color: transparent; color: light-dark(rgb(0, 0, 0), rgb(255, 255, 255));&quot;&gt;weid:root:2-P-&lt;/span&gt;&lt;span style=&quot;background-color: transparent;&quot;&gt;&lt;font style=&quot;color: light-dark(rgb(255, 51, 51), rgb(255, 255, 255));&quot;&gt;(B36)&lt;/font&gt;&lt;/span&gt;&lt;span style=&quot;background-color: transparent; color: light-dark(rgb(0, 0, 0), rgb(255, 255, 255));&quot;&gt;-&lt;/span&gt;&lt;span style=&quot;background-color: transparent;&quot;&gt;&lt;font style=&quot;color: light-dark(rgb(0, 204, 0), rgb(255, 255, 255));&quot;&gt;(B36)&lt;/font&gt;&lt;/span&gt;&lt;span style=&quot;background-color: transparent; color: light-dark(rgb(0, 0, 0), rgb(255, 255, 255));&quot;&gt;-...-?&lt;/span&gt;&lt;/div&gt;&lt;div&gt;&lt;span style=&quot;color: rgb(192, 192, 192); background-color: transparent;&quot;&gt;urn:&lt;/span&gt;oid:2.25.&lt;span style=&quot;background-color: transparent;&quot;&gt;&lt;font style=&quot;color: light-dark(rgb(255, 51, 51), rgb(255, 255, 255));&quot;&gt;(B10)&lt;/font&gt;&lt;/span&gt;&lt;span style=&quot;background-color: transparent; color: light-dark(rgb(0, 0, 0), rgb(255, 255, 255));&quot;&gt;.&lt;/span&gt;&lt;span style=&quot;background-color: transparent;&quot;&gt;&lt;font style=&quot;color: light-dark(rgb(0, 204, 0), rgb(255, 255, 255));&quot;&gt;(B10)&lt;/font&gt;&lt;/span&gt;&lt;span style=&quot;background-color: transparent; color: light-dark(rgb(0, 0, 0), rgb(255, 255, 255));&quot;&gt;...&lt;/span&gt;&lt;/div&gt;" style="rounded=0;whiteSpace=wrap;html=1;align=left;verticalAlign=top;" parent="1" vertex="1">
          <mxGeometry x="480" y="-70" width="382" height="100" as="geometry" />
        </mxCell>
        <mxCell id="GoeE4i76lrTlupw1m3yI-7" value="&lt;b&gt;&lt;i&gt;DNS-Based Class D WEID&lt;br&gt;&lt;/i&gt;&lt;/b&gt;&lt;div&gt;&lt;span style=&quot;color: rgb(192, 192, 192); background-color: transparent;&quot;&gt;urn:x-&lt;/span&gt;weid:&lt;font style=&quot;color: rgb(255, 51, 51);&quot;&gt;example.com&lt;/font&gt;:&lt;font style=&quot;color: rgb(0, 204, 0);&quot;&gt;(B36)&lt;/font&gt;-...-?&lt;br&gt;&lt;div&gt;&lt;span style=&quot;color: rgb(192, 192, 192); background-color: transparent;&quot;&gt;urn:x-&lt;/span&gt;weid:pen:37553:8-DNS-&lt;font style=&quot;color: rgb(255, 51, 51);&quot;&gt;COM-EXAMPLE&lt;/font&gt;-&lt;font style=&quot;color: rgb(0, 204, 0);&quot;&gt;(B36)&lt;/font&gt;-...-?&lt;/div&gt;&lt;div&gt;&lt;span style=&quot;color: rgb(192, 192, 192); background-color: transparent;&quot;&gt;urn:x-&lt;/span&gt;weid:pen:SZ5-8-DNS-&lt;font style=&quot;color: rgb(255, 51, 51);&quot;&gt;COM-EXAMPLE&lt;/font&gt;-&lt;font style=&quot;color: rgb(0, 204, 0);&quot;&gt;(B36)&lt;/font&gt;-...-?&lt;/div&gt;&lt;div&gt;&lt;span style=&quot;color: rgb(192, 192, 192); background-color: transparent;&quot;&gt;urn:x-&lt;/span&gt;&lt;span style=&quot;background-color: transparent; color: light-dark(rgb(0, 0, 0), rgb(255, 255, 255));&quot;&gt;weid:root:1-3-6-1-4-1-SZ5-8-DNS-&lt;/span&gt;&lt;span style=&quot;background-color: transparent;&quot;&gt;&lt;font style=&quot;color: light-dark(rgb(255, 51, 51), rgb(255, 255, 255));&quot;&gt;COM-EXAMPLE&lt;/font&gt;&lt;/span&gt;&lt;span style=&quot;background-color: transparent; color: light-dark(rgb(0, 0, 0), rgb(255, 255, 255));&quot;&gt;-&lt;/span&gt;&lt;span style=&quot;background-color: transparent;&quot;&gt;&lt;font style=&quot;color: light-dark(rgb(0, 204, 0), rgb(255, 255, 255));&quot;&gt;(B36)&lt;/font&gt;&lt;/span&gt;&lt;span style=&quot;background-color: transparent; color: light-dark(rgb(0, 0, 0), rgb(255, 255, 255));&quot;&gt;-...-?&lt;/span&gt;&lt;/div&gt;&lt;div&gt;&lt;span style=&quot;color: rgb(192, 192, 192); background-color: transparent;&quot;&gt;urn:&lt;/span&gt;oid:&lt;span style=&quot;background-color: transparent; color: light-dark(rgb(0, 0, 0), rgb(255, 255, 255));&quot;&gt;1.3.6.1.4.1.37553.8.17704.&lt;/span&gt;&lt;span style=&quot;background-color: transparent;&quot;&gt;&lt;font style=&quot;color: rgb(255, 51, 51);&quot;&gt;16438.32488192274&lt;/font&gt;&lt;/span&gt;&lt;span style=&quot;background-color: transparent; color: light-dark(rgb(0, 0, 0), rgb(255, 255, 255));&quot;&gt;.&lt;/span&gt;&lt;span style=&quot;background-color: transparent;&quot;&gt;&lt;font style=&quot;color: light-dark(rgb(0, 204, 0), rgb(255, 255, 255));&quot;&gt;(B10)&lt;/font&gt;&lt;/span&gt;&lt;span style=&quot;background-color: transparent; color: light-dark(rgb(0, 0, 0), rgb(255, 255, 255));&quot;&gt;...&lt;/span&gt;&lt;/div&gt;&lt;/div&gt;" style="rounded=0;whiteSpace=wrap;html=1;align=left;verticalAlign=top;" parent="1" vertex="1">
          <mxGeometry x="60" y="270" width="378" height="100" as="geometry" />
        </mxCell>
        <mxCell id="GoeE4i76lrTlupw1m3yI-15" value="&lt;font style=&quot;font-size: 22px;&quot;&gt;&lt;i&gt;&lt;b&gt;Overview of Wehowski Identifier (WEID) Classes&lt;/b&gt;&lt;/i&gt;&lt;/font&gt;" style="text;html=1;align=center;verticalAlign=middle;whiteSpace=wrap;rounded=0;" parent="1" vertex="1">
          <mxGeometry x="80" y="-290" width="720" height="30" as="geometry" />
        </mxCell>
        <mxCell id="GoeE4i76lrTlupw1m3yI-16" value="&lt;b&gt;&lt;i&gt;Proprietary Namespaces&lt;/i&gt;&lt;/b&gt;&lt;br&gt;&lt;div&gt;&lt;span style=&quot;color: rgb(192, 192, 192); background-color: transparent;&quot;&gt;urn:x-&lt;/span&gt;weid:&lt;font style=&quot;color: rgb(255, 51, 51);&quot;&gt;&lt;font style=&quot;color: rgb(255, 51, 51);&quot;&gt;X-(Name)&lt;/font&gt;&lt;/font&gt;:(&lt;span style=&quot;background-color: transparent; color: light-dark(rgb(0, 0, 0), rgb(255, 255, 255));&quot;&gt;&lt;i&gt;Proprietary&lt;/i&gt;&lt;span style=&quot;font-style: italic;&quot;&gt;)&lt;/span&gt;&lt;/span&gt;&lt;/div&gt;&lt;div&gt;&lt;div&gt;&lt;span style=&quot;color: rgb(192, 192, 192); background-color: transparent;&quot;&gt;urn:x-&lt;/span&gt;weid:(&lt;i&gt;Undefined&lt;/i&gt;)&lt;/div&gt;&lt;div&gt;&lt;span style=&quot;color: rgb(192, 192, 192); background-color: transparent;&quot;&gt;urn:&lt;/span&gt;&lt;span style=&quot;background-color: transparent; color: light-dark(rgb(0, 0, 0), rgb(255, 255, 255));&quot;&gt;oid:(&lt;/span&gt;&lt;i&gt;Undefined&lt;/i&gt;&lt;span style=&quot;background-color: transparent; color: light-dark(rgb(0, 0, 0), rgb(255, 255, 255));&quot;&gt;)&lt;/span&gt;&lt;/div&gt;&lt;/div&gt;" style="rounded=0;whiteSpace=wrap;html=1;align=left;verticalAlign=top;" parent="1" vertex="1">
          <mxGeometry x="480" y="270" width="392" height="100" as="geometry" />
        </mxCell>
        <mxCell id="GoeE4i76lrTlupw1m3yI-18" value="B10 = Base 10 Number (0..9)&lt;div&gt;B16 = Base 16 Number (0..9, A..F)&lt;br&gt;&lt;div&gt;B36 = Base 36 Number (0..9, A..Z)&lt;/div&gt;&lt;/div&gt;" style="text;html=1;align=left;verticalAlign=top;whiteSpace=wrap;rounded=0;" parent="1" vertex="1">
          <mxGeometry x="640" y="-200" width="200" height="50" as="geometry" />
        </mxCell>
      </root>
    </mxGraphModel>
  </diagram>
</mxfile>
